<?xml version="1.0" encoding="UTF-8"?>
<svg id="Layer_2" data-name="Layer 2" xmlns="http://www.w3.org/2000/svg" viewBox="0 0 108 108">
  <defs>
    <style>
      .cls-1 {
        fill: #fff;
      }

      .cls-2 {
        fill: none;
        stroke: #fff;
        stroke-linecap: round;
        stroke-miterlimit: 10;
        stroke-width: 3.97px;
      }
    </style>
  </defs>
  <polygon class="cls-1" points="47.07 38.93 77.5 4.5 57.93 46.07 47.07 38.93 47.07 38.93"/>
  <polygon class="cls-1" points="47.07 38.93 77.5 4.5 57.93 46.07 47.07 38.93 47.07 38.93"/>
  <path class="cls-2" d="M75.54,89.04c9.79-8.57,15.41-20.96,15.41-33.96s-5.22-24.51-14.39-33.05"/>
  <path class="cls-2" d="M66.94,79.21c6.95-6.09,10.95-14.89,10.95-24.13s-3.71-17.42-10.23-23.48"/>
  <path class="cls-1" d="M59.17,50.48l-16.64-10.95,15.9-17.99v-2.07c0-2.53-3.08-3.78-4.84-1.96l-17.47,18.03c-.69.71-1.64,1.12-2.63,1.12h-14.07c-1.29,0-2.34,1.05-2.34,2.34v31.31c0,1.29,1.05,2.34,2.34,2.34h14.07c.99,0,1.94.4,2.63,1.12l17.47,18.03c1.76,1.82,4.84.57,4.84-1.96v-18.41c4.89-3.78,8.05-9.69,8.05-16.35,0-4.47-1.43-8.6-3.84-11.97l-3.47,7.38Z"/>
</svg>