<?xml version="1.0" encoding="UTF-8"?>
<svg xmlns="http://www.w3.org/2000/svg" viewBox="0 0 108 108">
  <defs>
    <style>
      .cls-1 {
        stroke-width: .63px;
      }

      .cls-1, .cls-2 {
        stroke: #fff;
        stroke-miterlimit: 10;
      }

      .cls-1, .cls-2, .cls-3 {
        fill: none;
      }

      .cls-2 {
        stroke-linecap: round;
        stroke-width: 2.3px;
      }

      .cls-3, .cls-4, .cls-5, .cls-6 {
        stroke-width: 0px;
      }

      .cls-7 {
        clip-path: url(#clippath);
      }

      .cls-4 {
        fill: url(#radial-gradient);
      }

      .cls-5 {
        fill: #fff;
      }

      .cls-6 {
        fill: #ff4e00;
      }
    </style>
    <radialGradient id="radial-gradient" cx="2089.56" cy="512" fx="2089.56" fy="512" r="265.48" gradientTransform="translate(-166.38) scale(.11)" gradientUnits="userSpaceOnUse">
      <stop offset=".41" stop-color="#fff" stop-opacity="0"/>
      <stop offset=".57" stop-color="rgba(255, 255, 255, .02)" stop-opacity=".02"/>
      <stop offset=".74" stop-color="rgba(255, 255, 255, .06)" stop-opacity=".06"/>
      <stop offset=".91" stop-color="rgba(255, 255, 255, .15)" stop-opacity=".15"/>
      <stop offset="1" stop-color="#fff" stop-opacity=".2"/>
    </radialGradient>
    <clipPath id="clippath">
      <circle class="cls-3" cx="54" cy="54" r="28"/>
    </clipPath>
  </defs>
  <g id="Layer_2" data-name="Layer 2">
    <circle class="cls-4" cx="54" cy="54" r="28"/>
  </g>
  <g id="Layer_1" data-name="Layer 1">
    <g class="cls-7">
      <g>
        <line class="cls-1" x1="75.39" y1="54" x2="82.58" y2="54"/>
        <line class="cls-1" x1="32.61" y1="54" x2="25.42" y2="54"/>
        <line class="cls-1" x1="73.76" y1="45.81" x2="80.41" y2="43.06"/>
        <line class="cls-1" x1="34.24" y1="62.19" x2="27.59" y2="64.94"/>
        <line class="cls-1" x1="69.12" y1="38.88" x2="74.21" y2="33.79"/>
        <line class="cls-1" x1="62.19" y1="34.24" x2="64.94" y2="27.59"/>
        <line class="cls-1" x1="54" y1="32.61" x2="54" y2="25.42"/>
        <line class="cls-1" x1="45.81" y1="34.24" x2="43.06" y2="27.59"/>
        <line class="cls-1" x1="38.88" y1="38.88" x2="33.79" y2="33.79"/>
        <line class="cls-1" x1="34.24" y1="45.81" x2="27.59" y2="43.06"/>
        <line class="cls-1" x1="73.76" y1="62.19" x2="80.41" y2="64.94"/>
      </g>
    </g>
    <polygon class="cls-6" points="59.17 43.92 68.75 32.27 61.44 45.47 59.17 43.92 59.17 43.92"/>
    <g>
      <path class="cls-5" d="M53.87,40.06l-6.93,7.15c-.27.28-.65.44-1.04.44h-5.58c-.51,0-.93.42-.93.93v12.42c0,.51.42.93.93.93h5.58c.39,0,.77.16,1.04.44l6.93,7.15c.7.72,1.92.23,1.92-.78v-27.92c0-1-1.22-1.5-1.92-.78Z"/>
      <path class="cls-2" d="M62.57,68.44c3.88-3.4,6.11-8.32,6.11-13.48s-2.07-9.73-5.71-13.11"/>
      <path class="cls-2" d="M59.16,64.54c2.76-2.42,4.34-5.91,4.34-9.58s-1.47-6.91-4.06-9.32"/>
      <path class="cls-5" d="M54.06,47.44v15.04c2.9-1.27,4.92-4.16,4.92-7.52s-2.02-6.25-4.92-7.52Z"/>
    </g>
  </g>
</svg>